<svg xmlns="http://www.w3.org/2000/svg" viewBox="0 0 301.33424 301.33424">
  <title>Asset 1</title>
  <g id="Layer_2" data-name="Layer 2">
    <g id="Layer_1-2" data-name="Layer 1">
      <g>
        <circle cx="150.66712" cy="150.66712" r="150.66712" style="fill: #50301d"/>
        <g>
          <path d="M217.43343,180.13725c-2.34771,2.326-2.508,7.20767-.7494,9.23483a7.01238,7.01238,0,0,0,1.29946,1.23447c.70609.47215.75373-.03032.862-.54575a6.54264,6.54264,0,0,1,3.73378-4.78636c.41581-.20357.84029-.48947,1.33409-.16891a59.53568,59.53568,0,0,1-.10395,11.52186c-1.31241,9.2738-5.62232,17.02292-12.05463,23.69782a59.28635,59.28635,0,0,1-15.4203,11.35726c-.12991.06932-.25549.13864-.47207.25127.693.615,1.33838,1.14347,1.92752,1.72827,2.56423,2.54689,2.46028,5.32775-.32921,7.63644a26.1885,26.1885,0,0,1-8.99659,4.43115,104.63518,104.63518,0,0,1-23.48989,4.2666,161.38261,161.38261,0,0,1-37.771-1.16087c-6.493-1.00923-12.94262-2.27834-18.9721-5.05926a15.07737,15.07737,0,0,1-4.58711-3.03207c-2.0878-2.13108-2.14844-4.4874-.15592-6.71387a12.43373,12.43373,0,0,1,2.39966-2.02713,59.05021,59.05021,0,0,1-9.4774-5.8822C89.04249,220.48547,83.13,213.711,79.903,204.87028a44.10958,44.10958,0,0,1-2.25673-19.53953c1.607-.31619,2.59027.7407,3.54318,1.7153a5.03764,5.03764,0,0,1,1.2605,2.79818c.13861.87061.56742.96158,1.24314.53277a3.60839,3.60839,0,0,0,1.28645-1.39044,7.238,7.238,0,0,0,.13428-6.88281c-1.22147-2.52092-3.39157-4.089-5.6353-5.57034a10.77917,10.77917,0,0,1-3.3916-3.331c-1.52037-2.48629-.54577-5.22382,2.25674-5.9645a6.12951,6.12951,0,0,1,6.30237,1.555c1.27348,2.39966-.03465,4.05-3.60817,4.14961,1.33412.99191,2.46031,1.8279,3.58652,2.67255.25988.19059.43746.08664.60207-.13428,1.45541-1.90588,3.19667-3.59516,4.28389-5.77394a6.59319,6.59319,0,0,0-.97026-7.892,19.05143,19.05143,0,0,1-3.55186-5.53138,7.862,7.862,0,0,1,1.93187-9.03557,21.70965,21.70965,0,0,1,6.62724-4.27088c7.2423-3.214,14.90912-4.82533,22.68856-6.00352.80883-.12249,6.74983,1.38374,6.64024,2.44732a3.32389,3.32389,0,0,1-1.82358.49381,118.08168,118.08168,0,0,0-18.344,3.67746,38.9802,38.9802,0,0,0-9.05725,3.79009,12.88847,12.88847,0,0,0-2.87181,2.34335c-1.95352,2.11812-1.81058,4.5048.39849,6.3847.58044.48946,1.17386.96592,1.7976,1.39907.38985.26856.82731.51546.89663,1.06557-.60642,2.29137-.31188,3.17066,1.62,4.64339a28.3619,28.3619,0,0,0,9.34745,4.29687,120.03812,120.03812,0,0,0,20.87365,4.01967c6.2504.71038,12.51811,1.08722,18.81184,1.27348,3.52587.10395,7.05606.27288,10.56892.12126,5.19784-.22522,10.39568-.35085,15.58918-.849a159.318,159.318,0,0,0,23.00047-3.71212,61.59737,61.59737,0,0,0,8.22558-2.67689,32.91365,32.91365,0,0,0,4.75167-2.72888c1.94486-1.56368,2.07482-1.97518,1.32981-4.3272a1.10689,1.10689,0,0,1-.06937-.58041c.26427-.58908.85335-.823,1.33415-1.16518,3.56917-2.508,3.63416-5.78261.12563-8.41183a27.90311,27.90311,0,0,0-7.23369-3.73811,91.48418,91.48418,0,0,0-17.83727-4.28389c-1.464-.22525-2.92812-.44183-4.39646-.64106a1.894,1.894,0,0,1-1.22586-.40717c-.54578-.11262-1.09155-.22958-1.633-.3422a5.15133,5.15133,0,0,1,4.73439-2.62058c8.035,1.04823,15.979,2.495,23.59389,5.37542a29.39922,29.39922,0,0,1,7.79676,4.18861c3.998,3.11438,4.88593,6.89146,2.67686,11.46989a20.62028,20.62028,0,0,1-2.89344,4.2579c-2.365,2.82848-2.56428,5.4274-.7191,8.61973a40.14663,40.14663,0,0,0,3.86813,5.04625c.23821.29454.42015.38985.77531.11262,1.03091-.81433,2.10078-1.581,3.45222-2.5816-1.66763-.026-3.084.013-3.79871-1.42073a2.62541,2.62541,0,0,1,.03892-2.52962,7.62862,7.62862,0,0,1,5.553-1.9925c3.74245.37251,4.79937,3.92,2.82417,6.65323a18.80845,18.80845,0,0,1-4.743,4.01965A22.55027,22.55027,0,0,0,217.43343,180.13725Z" style="fill: #3e1e0f"/>
          <path d="M135.60085,151.72876a52.31539,52.31539,0,0,0,10.67979,4.81534c4.80034,1.33952,9.61073,1.12953,14.807.41105a23.50643,23.50643,0,0,1-4.76944-2.88736c-1.94449-1.70112-3.514-3.63162-3.31026-6.45193a52.57422,52.57422,0,0,1,8.492-.049c2.23172.13557,4.468.18454,6.69822.37874,8.21742.7156,16.40143,1.612,24.30074,4.16373a17.9094,17.9094,0,0,1,5.18063,2.46841c1.13257.83154,2.015,1.85872,1.62877,3.44642a2.24864,2.24864,0,0,1-1.37582.89255,78.97564,78.97564,0,0,1-16.33848,3.90195,173.61842,173.61842,0,0,1-17.68115,1.76781c-5.31993.27862-10.6383.56226-15.9639.43545-7.28341-.17341-14.56-.4908-21.80624-1.33316-2.18949-.25452-4.37043-.56-6.55413-.85044a3.40417,3.40417,0,0,1-1.70549-.50515c-.15488-.10651.06738-.31574-.24306-.4729a33.15585,33.15585,0,0,1-4.51265-2.71625c-1.85929-1.34912-1.7978-2.81755.14407-4.069a15.219,15.219,0,0,1,5.43145-1.84285,83.67563,83.67563,0,0,1,14.52886-1.65951C134.03088,151.5554,134.809,151.71527,135.60085,151.72876Z" style="fill: #f1a535"/>
          <path d="M139.94529,84.33241a63.90988,63.90988,0,0,0,9.02231,4.95723A52.74022,52.74022,0,0,1,159.67787,95.86c5.98752,4.99148,8.78439,12.04854,6.45078,19.81766-1.37638,4.58229-4.19864,8.17528-7.6341,11.406-3.15655,2.96839-6.87281,5.22768-10.057,8.13958-2.75562,2.51994-4.86547,5.42562-4.66314,9.44581a10.73693,10.73693,0,0,0,4.08229,7.831c.19446.167.86775.08992.47977.6878-4.31417-1.98318-7.51763-4.95884-8.216-9.87629-.44684-3.14666.86839-5.87642,2.70508-8.34991a42.92814,42.92814,0,0,1,5.32-5.54319,34.8378,34.8378,0,0,0,7.66708-9.48576c3.32186-6.56059,2.43053-13.093-2.50565-18.56819-3.04123-3.37333-6.80295-5.82487-10.543-8.30823a36.08065,36.08065,0,0,1-9.26067-8.12437,17.17864,17.17864,0,0,1-2.66041-16.69508c.8981.36689.51608,1.16892.49838,1.75008a13.15866,13.15866,0,0,0,2.32532,7.81379,20.37114,20.37114,0,0,0,5.19846,5.44141C139.28288,83.53959,139.7569,83.79962,139.94529,84.33241Z" style="fill: #f9b447"/>
          <path d="M123.17585,87.39a12.96527,12.96527,0,0,0-1.97246,5.24965c-.23975,3.51468,1.59026,5.92557,4.22161,7.88013a25.12516,25.12516,0,0,0,5.74494,2.97793,35.70744,35.70744,0,0,1,8.26269,4.35541c6.21317,4.64593,7.08076,11.4053,2.23354,17.48769a54.65574,54.65574,0,0,1-5.28262,5.4118c-2.13616,2.02973-4.05282,4.21371-4.47832,7.32831a11.62077,11.62077,0,0,0,.91885,5.52335c-2.48584-1.49529-4.14134-5.69185-3.60865-8.7281a15.75918,15.75918,0,0,1,3.58469-6.97163c1.54148-1.96487,3.02672-3.96946,3.54071-6.47363a8.05919,8.05919,0,0,0-2.02342-7.23458,21.876,21.876,0,0,0-6.51423-4.65182,45.85464,45.85464,0,0,1-6.53031-3.80794c-6.06162-4.61179-6.27723-11.73572-.47528-16.69634A8.54,8.54,0,0,1,123.17585,87.39Z" style="fill: #f9b851"/>
          <path d="M187.81567,100.1551c4.78146,3.36518,8.22861,7.61492,8.11013,13.8166-.0943,4.93588-2.76964,8.66233-6.4023,11.76585a46.24033,46.24033,0,0,1-9.86348,5.9212c-3.64532,1.80027-6.77526,4.06323-8.20952,8.40691a8.35111,8.35111,0,0,1,.36732-6.1929c1.58334-3.48,4.41336-5.84522,7.30345-8.15142,2.78622-2.2233,5.62181-4.38275,7.78906-7.2763,4.17224-5.57042,4.51144-11.65946.93724-17.61061-.09737-.16214-.18483-.33025-.2769-.49557Z" style="fill: #f8b74f"/>
          <path d="M102.18692,157.94375a12.0996,12.0996,0,0,1-4.43214-2.54453c-1.79428-1.60786-1.77216-3.45055.07806-5.02317a20.05031,20.05031,0,0,1,7.423-3.52894,99.67475,99.67475,0,0,1,17.52787-3.35751,8.424,8.424,0,0,1,3.43663-.18584c1.02111,2.20166,2.92948,3.62137,4.61572,5.23687-1.48935.8787-3.18354.60967-4.78377.80641-6.5275.80246-12.98523,1.88275-19.154,4.27718-.1119.04343-.22353.08761-.33438.13365C104.56481,154.5883,102.73576,155.59671,102.18692,157.94375Z" style="fill: #8e361e"/>
          <path d="M155.02811,65.13485c-.71891,3.24861.18169,5.24734,3.077,6.87143,2.49972,1.40218,5.284,2.069,7.9667,2.99455,4.084,1.409,8.02071,3.08908,11.01589,6.35665,4.26827,4.65641,5.21549,10.01872,3.23607,15.95614-.07038.21115-.09217.48558-.47092.57412a17.83606,17.83606,0,0,0-2.53194-8.77044,22.60435,22.60435,0,0,0-9.14-8.11014c-2.6519-1.42393-5.47868-2.45872-8.21264-3.69942-2.53186-1.149-4.98287-2.44886-6.45086-4.97767A5.58427,5.58427,0,0,1,155.02811,65.13485Z" style="fill: #f9b953"/>
          <path d="M84.64731,168.7919a8.91539,8.91539,0,0,0-4.94983-1.487c-1.56713.12685-2.925.58006-3.67927,2.04777a3.74489,3.74489,0,0,0,.46758,3.9488c1.21157,1.89315,3.14594,2.91519,4.89165,4.15947a10.98772,10.98772,0,0,1,3.97716,4.522c-.42071.20564-.43805.22911-.55178.14512-.88746-.65548-1.53623-.298-1.93754.54956-.43486.91838-.94326.95478-1.66963.36491-1.894-1.538-4.28971-2.14959-6.33558-3.41345a12.81739,12.81739,0,0,1-3.96188-3.61945c-.16942-.247-.28134-.65978-.69361-.52892-.32825.1042-.42067.46262-.51787.76783a8.14064,8.14064,0,0,0-.15754,2.14914c-.02744.58986.06576,1.22531-.52848,1.63454a9.343,9.343,0,0,1,.6519-12.89233,9.947,9.947,0,0,1,13.39481-.65472A4.12264,4.12264,0,0,1,84.64731,168.7919Z" style="fill: #c64e27"/>
          <path d="M102.18692,157.94375a3.07525,3.07525,0,0,1,1.733-3.15157c2.89039-1.889,6.17909-2.76006,9.4692-3.57437a89.96237,89.96237,0,0,1,15.54866-2.45008c.635-.04308,1.26571-.14979,1.89836-.227q2.3823,1.594,4.76471,3.18807c-1.16594.39773-2.36887.10207-3.55167.189-5.67331.41694-11.34005.87646-16.80963,2.60338a5.83757,5.83757,0,0,0-2.40078,1.29751c-1.10281,1.0702-1.07825,1.9702.18313,2.82635,1.57908,1.07178,3.19138,2.09657,4.81714,3.09644.53489.329.54562.76219.437.8465A65.92791,65.92791,0,0,1,102.18692,157.94375Z" style="fill: #de8f27"/>
          <path d="M223.91293,185.10441c-2.753.85074-4.51046,2.54461-4.80846,5.5453-.1199,1.20732-.75871.395-1.21246.23979-2.0819-4.2399-.00354-7.96288,3.50041-9.56672,1.2358-.56567,2.4957-1.07649,3.7224-1.658a9.903,9.903,0,0,0,4.67554-4.1385,5.96282,5.96282,0,0,0-1.536-7.83606,4.38807,4.38807,0,0,0-4.61274-.67153c-.46852.20389-.94931.06381-1.38739.26206a7.95574,7.95574,0,0,0-5.01114,1.51423.8451.8451,0,0,1-.6634.18839c1.67846-3.72894,6.48105-5.7,10.82064-4.38976a9.44577,9.44577,0,0,1,6.98486,7.49428c.82673,3.94058-.77225,7.03848-3.6394,9.59822C228.78492,183.43672,226.29072,184.16411,223.91293,185.10441Z" style="fill: #a23e22"/>
          <path d="M69.00069,180.03224a7.38991,7.38991,0,0,0,.23311-2.60643,4.25561,4.25561,0,0,1,.14378-1.2998c.18-.5634.423-1.14763.9944-1.23042.49278-.07138.52649.61587.762.95563a13.31321,13.31321,0,0,0,5.87082,4.57158,23.82683,23.82683,0,0,1,4.59953,2.53135c.34574.25093.554.57178.86612-.08128.7903-1.65332,1.21859-1.75214,2.6864-.79439.03165.02066.13029-.06137.19772-.0955a7.36711,7.36711,0,0,1-.72833,8.05463,3.95409,3.95409,0,0,1-1.14789.85146c-.76062.38715-1.1789.42775-1.3053-.67351a5.27292,5.27292,0,0,0-4.52511-4.8866,10.36356,10.36356,0,0,0-2.631-1.119C72.71505,183.23938,70.50123,182.15238,69.00069,180.03224Z" style="fill: #a13e22"/>
          <path d="M166.5158,128.432a91.40536,91.40536,0,0,1-10.73154,7.65652,21.89442,21.89442,0,0,0-6.32089,5.61813c-2.68288,3.8632-2.5237,8.02923.59016,11.53135.18636.20579.3766.40767.70664.76875a6.30506,6.30506,0,0,1-2.42275-.81923,11.22588,11.22588,0,0,1-3.89038-4.58536,10.01733,10.01733,0,0,1,.497-9.65993,19.82558,19.82558,0,0,1,5.22209-5.57931,97.10054,97.10054,0,0,0,8.60776-6.91881c3.98742-3.83213,7.0314-8.26607,7.73415-13.89585a17.201,17.201,0,0,0-4.81056-14.32684,35.52356,35.52356,0,0,0-9.889-7.1401c-3.62248-1.89085-7.36144-3.55648-10.85579-5.68414a10.95616,10.95616,0,0,1-2.17983-1.5463c-.01953-.02005-6.556-6.1801-7.62764-11.4954a18.59094,18.59094,0,0,1-.10095-2.98573c-.01553-.38437.14754-.80756-.20188-1.13371a18.63686,18.63686,0,0,1,3.82047-6.58878,32.02893,32.02893,0,0,1,19.6732-10.54129,20.014,20.014,0,0,1,5.70353-.24461c-1.54139.59792-3.10995,1.0522-4.597,1.72388-4.58147,2.06555-8.367,5.03574-10.59177,9.65605-2.51981,5.24541-1.87528,10.153,1.82483,14.653.46592.47758.93184.95125,1.39776,1.4288.09318.09318.18636.1825.27953.27567,4.25924,3.339,9.34933,5.21046,13.9774,7.89724,4.70183,2.72946,8.84071,6.0685,11.53135,10.92565a21.19663,21.19663,0,0,1,2.68287,8.74753C177.25511,115.42911,173.20164,122.51487,166.5158,128.432Z" style="fill: #fbd79b"/>
          <path d="M84.2611,194.41711c3.422-1.61789,4.89792-4.57715,5.38188-8.10181a9.40509,9.40509,0,0,0-.96487-6.06848,1.13465,1.13465,0,0,1,.20795-1.41235c1.10192-1.4248,2.179-2.871,3.33235-4.25327a12.08679,12.08679,0,0,0,2.81235-6.51162,49.967,49.967,0,0,0,7.97754,3.3398,122.457,122.457,0,0,0,21.56568,4.58121,207.43452,207.43452,0,0,0,30.90635,1.60989,204.48765,204.48765,0,0,0,23.08413-1.76747c.43595-.057.87763-.07,1.31665-.10351,1.26936-.01813,2.52551-.18876,3.78679-.30622.44527-.04145,1.12764-.1342,1.218.4393.07173.45563-.55631.61964-.96763.74939a55.76876,55.76876,0,0,1-7.71417,1.83038,23.51642,23.51642,0,0,1-5.31116.679c2.41137-.15463,5.21589-.152,8.01824-.10181a76.72943,76.72943,0,0,1,10.89359.73242,15.81447,15.81447,0,0,1,7.42694,2.88637,10.38422,10.38422,0,0,1,4.03093,10.202c-.632,4.8563-2.84334,9.07409-5.53391,13.05268a53.77437,53.77437,0,0,1-16.85806,15.86052,47.941,47.941,0,0,1-11.98232,4.90733,89.18845,89.18845,0,0,1-17.14167,2.99347,86.01682,86.01682,0,0,1-35.84652-4.56389,3.4038,3.4038,0,0,1-.49168-.18171,66.06347,66.06347,0,0,0,9.18822,5.59,63.93691,63.93691,0,0,0,10.3683,4.15238c3.48837,1.03177,7.05472,1.758,10.64082,2.44613a1.13385,1.13385,0,0,1-1.26208.23533,90.56466,90.56466,0,0,1-25.90035-5.13,10.3223,10.3223,0,0,1-2.66231-1.04516c-.00586-.33249-.32119-.29986-.50138-.38932a58.89849,58.89849,0,0,1-18.17287-14.13251,49.20656,49.20656,0,0,1-9.05733-14.76568A33.33041,33.33041,0,0,1,84.2611,194.41711Z" style="fill: #d25627"/>
          <path d="M142.34372,237.33255l.93764-.07754a64.741,64.741,0,0,1-31.06952-12.99116c3.03337.97363,6.04448,1.99521,9.14084,2.7253a94.29278,94.29278,0,0,0,16.402,2.46729,85.07731,85.07731,0,0,0,11.85213-.13579,79.546,79.546,0,0,0,24.52032-5.51958,45.16838,45.16838,0,0,0,10.38787-6.3897,52.33165,52.33165,0,0,0,10.93283-11.68129c2.76183-4.06349,5.04637-8.3953,5.55343-13.36307.53608-5.252-1.90168-8.9413-6.65828-11.03576a24.44861,24.44861,0,0,0-9.11156-1.72609c-2.59581-.08955-5.18353-.35424-7.78921-.27808-2.54111.07426-5.08611.01615-7.64191-.09146,5.03793-.84154,10.08263-1.60087,14.90959-3.34739-1.61842-.31041-3.23647.35382-4.82874-.1587,2.33436-.465,4.6621-.96715,7.00466-1.38653a97.3449,97.3449,0,0,0,11.2677-2.72408,1.36258,1.36258,0,0,1,1.21748-.053c-1.85042,2.34156-4.47438,3.35706-7.005,4.54563a54.59682,54.59682,0,0,0,7.20591-1.55063c2.32229-.72964,4.66135-1.41579,6.90555-2.37135.68259-.29064,1.102-.25847,1.50118.51329,1.03338,1.9981,2.7102,3.54178,3.99742,5.37024a2.70291,2.70291,0,0,1,.39715,3.04111,11.01692,11.01692,0,0,0,3.84757,12.889A33.85711,33.85711,0,0,1,213.29,205.33334c-2.8597,6.78574-7.4098,12.28641-12.87934,17.1217-4.4962,3.97483-9.68664,6.76542-15.07433,9.28624-2.31561,1.08343-4.78209,1.71067-7.12206,2.69658a52.5,52.5,0,0,1-8.84024,1.90181,108.83306,108.83306,0,0,1-16.07542,1.28912c-3.35289.05362-6.69437-.23481-10.04255-.09833A1.17987,1.17987,0,0,1,142.34372,237.33255Z" style="fill: #9c3b21"/>
          <path d="M93.77835,158.42409c5.85468,3.11082,12.19373,4.74028,18.63649,6.00732,14.64666,2.88043,29.45766,3.63441,44.3467,3.30858.4784-.01045.95764.01585,1.43648.025,4.11833.09223,8.24213.32842,12.35529.1223a134.10135,134.10135,0,0,0,22.10026-2.93518c2.57947-.56674,5.14987-1.1689,7.707-1.829a6.24146,6.24146,0,0,1,1.18267-.19994c1.2203-.07315,1.64434.39476,1.37547,1.57414-.11207.49157-.14418,1.05059-.66571,1.35251a59.66,59.66,0,0,1-12.83626,3.87,166.77781,166.77781,0,0,1-25.20788,3.1861c-5.963.31976-11.92955.52647-17.89694.36448a204.00444,204.00444,0,0,1-24.64331-1.88083c-7.44-1.11137-14.85316-2.37374-21.85326-5.31018a17.18308,17.18308,0,0,1-5.5719-3.47564A2.95663,2.95663,0,0,1,93.77835,158.42409Z" style="fill: #cc5227"/>
          <path d="M160.40172,245.94541a121.1739,121.1739,0,0,1-16.31828.20047c-9.83536-.38769-19.601-1.44-29.01763-4.53416-2.33883-.7685-4.73133-1.56992-6.56235-3.36378a2.45418,2.45418,0,0,1,.59-4.10012c.37613-.22248.60978-.02094.87819.10734a75.85252,75.85252,0,0,0,21.935,6.19443,126.894,126.894,0,0,0,16.10817,1.25971c2.03573.03825,4.0751.12295,6.11365.15967,1.23782-.34571,2.44561.15116,3.66826.13263,3.84195-.05822,7.67161.39523,11.51564.25555.53639-.01949,1.32307-.13589,1.46158.5028.1594.73495-.65031.9202-1.18725,1.11009A35.98433,35.98433,0,0,1,160.40172,245.94541Z" style="fill: #b34525"/>
          <path d="M222.25424,167.28074c.88246-.194,1.53376-.90031,2.51474-.96065a5.56828,5.56828,0,0,1,5.42386,3.08592,6.26969,6.26969,0,0,1-.43472,6.81663c-1.51958,2.37947-3.91817,3.54408-6.42971,4.56974-1.84668.75411-3.66824,1.548-4.86822,3.32869a6.17068,6.17068,0,0,0-.52333,6.1351c.07895.19761.66171.47668-.04485.63333-2.70685-1.63087-3.18369-4.86137-2.41585-7.87724.58905-2.31358,2.23865-3.91221,4.11243-5.28275a30.18556,30.18556,0,0,0,4.36464-3.34518,5.5507,5.5507,0,0,0,1.65089-2.86387C225.97066,169.30024,224.87581,167.93606,222.25424,167.28074Z" style="fill: #d15327"/>
          <path d="M160.40172,245.94541a91.94433,91.94433,0,0,0,8.899-2.34226,2.76175,2.76175,0,0,0,1.35-.73527c-.34037-.4614-.82307-.26852-1.21793-.25277-3.99064.15942-7.96778-.24779-11.953-.31543-1.08558-.01843-2.20257-.48377-3.35131-.4306.46141-.35937,1.00263-.20045,1.50585-.20268a113.81055,113.81055,0,0,0,16.73635-1.61062c2.361-.36165,4.66621-.98364,7.03-1.30389,3.25184-.5095,6.56046-.62193,9.77311-1.409a26.64932,26.64932,0,0,1,3.89687-.60525c.34243-.03167.9811-.228.76911.57817-.98568,1.98034-2.94408,2.641-4.77918,3.36283a73.04906,73.04906,0,0,1-18.072,4.3683A87.6653,87.6653,0,0,1,160.40172,245.94541Z" style="fill: #94371f"/>
          <path d="M178.21423,234.43786a.30924.30924,0,0,1-.11544-.02881,1.35413,1.35413,0,0,1-.14377-.14552c.331-.11731.65984-.24085.99314-.351a69.03682,69.03682,0,0,0,17.05313-8.39693,51.859,51.859,0,0,0,9.4094-8.4769,42.19525,42.19525,0,0,0,6.7128-9.87358,34.50235,34.50235,0,0,0,3.63507-11.71886,2.21246,2.21246,0,0,1,.46222-1.44294,5.47556,5.47556,0,0,0,1.55186.61354c1.10593.07586,1.1124.6379.9857,1.5124A39.13742,39.13742,0,0,1,208.64981,216.867c-6.82422,7.64236-15.35954,12.5962-24.93185,15.92263A36.732,36.732,0,0,1,178.21423,234.43786Z" style="fill: #d15327"/>
          <path d="M84.2611,194.41711c.54584.06388.4147.52543.45537.84084.87252,6.76542,3.97619,12.5476,7.95776,17.92058A61.8186,61.8186,0,0,0,113.04111,230.475c.28589.157.78784.14035.73975.68234-8.64044-3.738-16.3078-8.8271-22.324-16.17817a37.9313,37.9313,0,0,1-8.45928-18.28889C82.72533,194.97566,82.70386,194.97907,84.2611,194.41711Z" style="fill: #faf3df"/>
          <path d="M193.83985,237.31577c-.27873-.73215-.873-.2417-1.20427-.19137-2.42335.36824-4.81635.97066-7.24764,1.24141-1.98046.22056-3.96051.78049-5.98715.38614,3.42565-1.15836,6.91874-2.12536,10.231-3.60537.437-.19524.85965-.43085,1.3105-.58455.57206-.19508,1.08132-.96768,1.78591-.16924C193.47437,235.23833,194.58337,235.91518,193.83985,237.31577Z" style="fill: #702b14"/>
          <g>
            <path d="M158.21218,167.77466l.00187-.00033-.016-.00931Z" style="fill: #a53e23"/>
            <path d="M208.048,158.19058q-1.33233.712-2.6645,1.42386a.54584.54584,0,0,0-.49152.23718q-1.91732.731-3.83478,1.46205h-.00006c-2.64729.72552-5.27753,1.522-7.94506,2.16351a176.615,176.615,0,0,1-27.187,3.88227c-.73277.21318-1.50039-.05765-2.23273.1613l-2.09677.07288c-1.11723.24546-2.26518-.08306-3.38146.1807.16782.08836.33737.24252.50248.23783,1.68173-.04746,3.3487.21475,5.02122.2465a106.20617,106.20617,0,0,0,14.825-.6715c3.75353-.45494,7.48888-.98448,11.20409-1.67528,3.84014-.714,7.6216-1.68283,11.41356-2.60718.4642-.11315,1.01921-.2627,1.38067.07765.40888.38492.16693.92372-.09689,1.32166-.248.374.04509.80271-.2112,1.14581a26.09954,26.09954,0,0,0,4.56116-2.66076C208.97619,161.56607,209.31643,160.18754,208.048,158.19058Z" style="fill: #a53e23"/>
          </g>
          <path d="M161.59552,167.59364a10.07415,10.07415,0,0,1-3.38327.18108A13.63832,13.63832,0,0,1,161.59552,167.59364Z" style="fill: #cc5227"/>
          <path d="M165.925,167.35946a4.51833,4.51833,0,0,1-2.23242.16136A6.23823,6.23823,0,0,1,165.925,167.35946Z" style="fill: #cc5227"/>
          <path d="M70.16679,170.9894a3.682,3.682,0,0,1,1.9833-2.94881c.47338-.291.88157-.27364.74019.48161-.1756.93809-.34526,1.87739-.53059,2.81358-.14272.7209-.32126,1.56936-1.23844,1.47428C70.21888,172.71651,70.20331,171.8522,70.16679,170.9894Z" style="fill: #e68c5f"/>
          <path d="M110.00638,180.27378a28.14248,28.14248,0,0,0-4.82692,6.34064c-4.261,8.05371-3.45211,15.808,1.43941,23.27641a35.50667,35.50667,0,0,0,12.17066,11.04658c.34232.20043.69884.37654,1.06305.57159-.16632.27094-.351.13829-.50364.08186a43.59836,43.59836,0,0,1-14.92966-8.74529c-5.05486-4.70412-8.54635-10.30565-9.35976-17.25452a20.48958,20.48958,0,0,1,4.654-15.57456c1.83774-2.30858,1.86634-2.26864,4.65135-1.454,1.84232.53884,3.69844,1.03052,5.54744,1.54669C109.93608,180.11575,109.94724,180.16741,110.00638,180.27378Z" style="fill: #facdaa"/>
          <path d="M209.48036,202.83968a23.26312,23.26312,0,0,1-1.90878,5.75528,35.21468,35.21468,0,0,1-19.0797,18.47214,79.7139,79.7139,0,0,1-12.885,4.0734,26.251,26.251,0,0,1-4.16462.56143C187.47466,226.626,200.68853,217.86627,209.48036,202.83968Z" style="fill: #5b260e"/>
          <path d="M121.93283,168.2669a47.68464,47.68464,0,0,1-11.98074-1.25583,33.14889,33.14889,0,0,1-4.06328-1.396c-.38253-.14729-.81613-.33169-.694-.81755.1059-.42139.5617-.39176.91991-.36747a32.42625,32.42625,0,0,1,6.72414.969C115.89433,166.27033,118.90372,167.30319,121.93283,168.2669Z" style="fill: #e78555"/>
          <path d="M209.38106,148.47805c-8.99614-6.788-21.13853-7.34234-31.81913-9.31845l-.50709-.09392a4.71136,4.71136,0,0,1-.66213,1.66215,4.8265,4.8265,0,0,1-2.10629,1.77937,5.34148,5.34148,0,0,1-2.58267.42608.56037.56037,0,0,0,.29391.29705c1.228.36465,2.51381-.08549,3.74314.26411a2.2967,2.2967,0,0,0,1.352-.06352,1.1799,1.1799,0,0,0,.11058-.12625l.23929.02431a.55158.55158,0,0,0-.02008.08238l1.30733.423c5.1001.527,9.54581,1.21552,13.2195,1.88808.00006,0,6.99373,1.28034,11.13649,4.67379a3.45516,3.45516,0,0,1,1.47425,2.34321,3.189,3.189,0,0,1-1.23885,2.51736,14.43887,14.43887,0,0,1-1.97255,1.35774c-.73612.46435-1.65687.63672-2.2166,1.38021a33.82844,33.82844,0,0,1-7.03064,2.35119c-12.39542,3.0639-25.04075,3.99263-37.74811,4.26806a217.17813,217.17813,0,0,1-27.11819-1.168c-3.17611-.32931-6.41411-.44227-9.48029-1.379-1.41988-.43375-11.10339-2.54786-15.46825-4.37107a13.39033,13.39033,0,0,1-4.37294-2.69086c-1.48221-1.56586-1.48145-2.85654.12-4.33951a12.39205,12.39205,0,0,1,3.92606-2.29027c6.0484-2.41676,12.42828-3.38945,18.82-4.32365a41.67228,41.67228,0,0,0,5.44048-.748c-.094-.29851-1.74873-3.44641-3.34548-3.88411-2.47711.16124-4.92.58305-7.364.98733a78.70091,78.70091,0,0,0-18.712,4.998c-2.61221,1.13434-5.1637,2.41138-6.87373,4.83223a4.30952,4.30952,0,0,0-.864,3.15979,6.07439,6.07439,0,0,0,2.365,3.37156c1.11479.90776,2.27993,1.75576,3.47139,2.5599a16.91881,16.91881,0,0,0,3.67551,1.6651c10.78377,3.94563,22.04213,5.43117,33.39152,6.4326,3.18715.28119,6.38716.37474,9.58083.55025a205.81761,205.81761,0,0,0,20.80871-.14335q4.08354-.1893,8.15761-.538a165.181,165.181,0,0,0,20.36-2.94052,70.51209,70.51209,0,0,0,10.05985-2.69027c1.3161-.495,2.61552-1.02768,3.91478-1.5618a5.03619,5.03619,0,0,0,.62576-.31773,22.82655,22.82655,0,0,0,2.576-1.59417,14.25106,14.25106,0,0,0,2.35284-1.84488,5.95388,5.95388,0,0,0,1.52778-4.23177A5.71644,5.71644,0,0,0,209.38106,148.47805Z" style="fill: #fef8eb"/>
          <path d="M203.66074,155.36951a12.55687,12.55687,0,0,1-4.52718,2.62465A3.4223,3.4223,0,0,0,197.301,154.725a29.28955,29.28955,0,0,0-9.13579-3.506,116.50115,116.50115,0,0,0-15.09168-2.44993,166.20474,166.20474,0,0,0-18.90442-.94347,1.9727,1.9727,0,0,1-1.1609-.20965c.10872-2.41888,1.58022-3.99908,3.34681-5.37354a1.37836,1.37836,0,0,1,.81147-.1087c4.31358.09706,8.62715.20188,12.92909.56684.03495.00389.06988.01166.10483.01555,2.03837.132,4.18933.30283,6.37138.52026.22129.00777,1.456.13979,1.755.18249,3.1876.35331,6.39853.81145,9.38035,1.40162h-.01944c.17086.035.34172.066.51254.101a59.6909,59.6909,0,0,1,11.64394,3.26138,15.37337,15.37337,0,0,1,3.537,2.00732C205.37294,151.7548,205.49332,153.634,203.66074,155.36951Z" style="fill: #ca5227"/>
          <path d="M162.9054,208.45217a16.39094,16.39094,0,0,0,4.34362-10.68432,17.04513,17.04513,0,0,0-10.0519,3.29932c-.60953-6.18466-3.04553-11.26678-6.607-13.78393-3.89636,3.78195-6.4676,8.12349-6.43015,13.82969a16.29416,16.29416,0,0,0-10.06855-3.29723,16.28188,16.28188,0,0,0,4.30825,10.64271,14.71009,14.71009,0,0,0-6.91068,3.266,35.29489,35.29489,0,0,0,3.76116,2.3944,15.85125,15.85125,0,0,0,12.25074.389c1.07968-.364,2.11773-1.18991,3.17451-1.18783,1.05263,0,2.10318.77386,3.15787,1.20448a5.32133,5.32133,0,0,0,.59079.19763c4.10439,1.18368,8.15677,1.22736,12.0386-.76762a33.50282,33.50282,0,0,0,3.38254-2.29248A14.20256,14.20256,0,0,0,162.9054,208.45217Zm-22.908-5.363a8.50232,8.50232,0,0,1,4.54541,1.53525,1.43807,1.43807,0,0,1,.36821.48887c.595,1.17328,1.10464,2.3944,1.7849,3.51566.65943,1.088,1.48738,2.07613,2.30285,3.18908C144.59894,210.857,140.376,206.78586,139.99736,203.0892Zm10.70514-6.30948c3.20361,3.64672,2.69187,10.51581,0,14.80743C147.99189,207.69494,147.33243,200.3162,150.7025,196.77972Zm1.75574,14.96968c.85707-1.24817,1.73495-2.47137,2.54834-3.73409a6.32207,6.32207,0,0,0,.95692-1.94507,3.24569,3.24569,0,0,1,2.66691-2.436c.88-.25171,1.7849-.414,2.7356-.63033C160.98738,206.74218,156.43781,211.1274,152.45824,211.7494Z" style="fill: #9c3b21"/>
        </g>
      </g>
    </g>
  </g>
</svg>
